<mxfile host="app.diagrams.net" modified="2023-09-17T10:56:58.043Z" agent="Mozilla/5.0 (Windows NT 10.0; Win64; x64) AppleWebKit/537.36 (KHTML, like Gecko) Chrome/116.0.0.0 Safari/537.36" etag="fsGRYZQ7DK6qfaW_QBAB" version="21.7.5" type="device">
  <diagram name="Страница 1" id="ykMWDdC_rx6XrkEppTeH">
    <mxGraphModel dx="1434" dy="1927" grid="1" gridSize="10" guides="1" tooltips="1" connect="1" arrows="1" fold="1" page="1" pageScale="1" pageWidth="827" pageHeight="1169" math="0" shadow="0">
      <root>
        <mxCell id="0" />
        <mxCell id="1" parent="0" />
        <mxCell id="GtSsYqe8CseLy04RSJ3Y-30" value="Людина" style="shape=umlActor;verticalLabelPosition=bottom;verticalAlign=top;html=1;outlineConnect=0;" parent="1" vertex="1">
          <mxGeometry x="50" y="290" width="30" height="60" as="geometry" />
        </mxCell>
        <mxCell id="GtSsYqe8CseLy04RSJ3Y-42" style="edgeStyle=orthogonalEdgeStyle;rounded=0;orthogonalLoop=1;jettySize=auto;html=1;exitX=1;exitY=0.5;exitDx=0;exitDy=0;entryX=0;entryY=0.5;entryDx=0;entryDy=0;dashed=1;" parent="1" source="GtSsYqe8CseLy04RSJ3Y-31" target="GtSsYqe8CseLy04RSJ3Y-32" edge="1">
          <mxGeometry relative="1" as="geometry">
            <mxPoint x="310.1428571428571" y="160" as="targetPoint" />
          </mxGeometry>
        </mxCell>
        <mxCell id="GtSsYqe8CseLy04RSJ3Y-31" value="Вимірювання фізичного стану" style="ellipse;whiteSpace=wrap;html=1;" parent="1" vertex="1">
          <mxGeometry x="230" y="160" width="200" height="80" as="geometry" />
        </mxCell>
        <mxCell id="GtSsYqe8CseLy04RSJ3Y-32" value="Ведення журналу фізичного здоров&#39;я" style="ellipse;whiteSpace=wrap;html=1;" parent="1" vertex="1">
          <mxGeometry x="490" y="160" width="200" height="80" as="geometry" />
        </mxCell>
        <mxCell id="GtSsYqe8CseLy04RSJ3Y-43" style="edgeStyle=orthogonalEdgeStyle;rounded=0;orthogonalLoop=1;jettySize=auto;html=1;exitX=1;exitY=0.5;exitDx=0;exitDy=0;entryX=0;entryY=0.5;entryDx=0;entryDy=0;dashed=1;" parent="1" source="GtSsYqe8CseLy04RSJ3Y-33" target="GtSsYqe8CseLy04RSJ3Y-34" edge="1">
          <mxGeometry relative="1" as="geometry" />
        </mxCell>
        <mxCell id="GtSsYqe8CseLy04RSJ3Y-46" style="edgeStyle=orthogonalEdgeStyle;rounded=0;orthogonalLoop=1;jettySize=auto;html=1;exitX=0.5;exitY=1;exitDx=0;exitDy=0;entryX=0.5;entryY=0;entryDx=0;entryDy=0;dashed=1;" parent="1" source="GtSsYqe8CseLy04RSJ3Y-33" target="GtSsYqe8CseLy04RSJ3Y-35" edge="1">
          <mxGeometry relative="1" as="geometry" />
        </mxCell>
        <mxCell id="GtSsYqe8CseLy04RSJ3Y-33" value="Вивчення поезії" style="ellipse;whiteSpace=wrap;html=1;" parent="1" vertex="1">
          <mxGeometry x="230" y="280" width="200" height="80" as="geometry" />
        </mxCell>
        <mxCell id="GtSsYqe8CseLy04RSJ3Y-34" value="Поетичні заходи та обговорення творів у літературних групах" style="ellipse;whiteSpace=wrap;html=1;" parent="1" vertex="1">
          <mxGeometry x="490" y="280" width="200" height="80" as="geometry" />
        </mxCell>
        <mxCell id="GtSsYqe8CseLy04RSJ3Y-35" value="Написання власних віршів" style="ellipse;whiteSpace=wrap;html=1;" parent="1" vertex="1">
          <mxGeometry x="230" y="400" width="200" height="80" as="geometry" />
        </mxCell>
        <mxCell id="GtSsYqe8CseLy04RSJ3Y-39" value="" style="endArrow=classic;html=1;rounded=0;entryX=0;entryY=0.5;entryDx=0;entryDy=0;" parent="1" target="GtSsYqe8CseLy04RSJ3Y-31" edge="1">
          <mxGeometry width="50" height="50" relative="1" as="geometry">
            <mxPoint x="90" y="300" as="sourcePoint" />
            <mxPoint x="150" y="290" as="targetPoint" />
          </mxGeometry>
        </mxCell>
        <mxCell id="GtSsYqe8CseLy04RSJ3Y-44" value="" style="endArrow=classic;html=1;rounded=0;entryX=0;entryY=0.5;entryDx=0;entryDy=0;" parent="1" target="GtSsYqe8CseLy04RSJ3Y-33" edge="1">
          <mxGeometry width="50" height="50" relative="1" as="geometry">
            <mxPoint x="90" y="320" as="sourcePoint" />
            <mxPoint x="240" y="220" as="targetPoint" />
          </mxGeometry>
        </mxCell>
        <mxCell id="GtSsYqe8CseLy04RSJ3Y-47" value="" style="endArrow=classic;html=1;rounded=0;entryX=0;entryY=0.5;entryDx=0;entryDy=0;" parent="1" target="GtSsYqe8CseLy04RSJ3Y-35" edge="1">
          <mxGeometry width="50" height="50" relative="1" as="geometry">
            <mxPoint x="90" y="340" as="sourcePoint" />
            <mxPoint x="230" y="340" as="targetPoint" />
          </mxGeometry>
        </mxCell>
        <mxCell id="GtSsYqe8CseLy04RSJ3Y-48" value="" style="swimlane;startSize=0;" parent="1" vertex="1">
          <mxGeometry x="196" y="20" width="524" height="501" as="geometry">
            <mxRectangle x="200" y="125" width="50" height="40" as="alternateBounds" />
          </mxGeometry>
        </mxCell>
        <mxCell id="_MfQHNvoKg8z1ilOdqCw-5" value="include" style="text;html=1;strokeColor=none;fillColor=none;align=center;verticalAlign=middle;whiteSpace=wrap;rounded=0;" vertex="1" parent="GtSsYqe8CseLy04RSJ3Y-48">
          <mxGeometry x="230" y="45" width="60" height="30" as="geometry" />
        </mxCell>
        <mxCell id="_MfQHNvoKg8z1ilOdqCw-6" value="include" style="text;html=1;strokeColor=none;fillColor=none;align=center;verticalAlign=middle;whiteSpace=wrap;rounded=0;" vertex="1" parent="GtSsYqe8CseLy04RSJ3Y-48">
          <mxGeometry x="230" y="150" width="60" height="30" as="geometry" />
        </mxCell>
        <mxCell id="_MfQHNvoKg8z1ilOdqCw-16" value="include" style="text;html=1;strokeColor=none;fillColor=none;align=center;verticalAlign=middle;whiteSpace=wrap;rounded=0;" vertex="1" parent="GtSsYqe8CseLy04RSJ3Y-48">
          <mxGeometry x="230" y="270" width="60" height="30" as="geometry" />
        </mxCell>
        <mxCell id="_MfQHNvoKg8z1ilOdqCw-20" value="extend" style="text;html=1;strokeColor=none;fillColor=none;align=center;verticalAlign=middle;whiteSpace=wrap;rounded=0;rotation=-90;" vertex="1" parent="GtSsYqe8CseLy04RSJ3Y-48">
          <mxGeometry x="120" y="345" width="60" height="30" as="geometry" />
        </mxCell>
        <mxCell id="_MfQHNvoKg8z1ilOdqCw-22" value="" style="endArrow=classic;html=1;rounded=0;exitX=1;exitY=1;exitDx=0;exitDy=0;" edge="1" parent="GtSsYqe8CseLy04RSJ3Y-48" source="GtSsYqe8CseLy04RSJ3Y-34">
          <mxGeometry width="50" height="50" relative="1" as="geometry">
            <mxPoint x="504" y="390" as="sourcePoint" />
            <mxPoint x="564" y="370" as="targetPoint" />
          </mxGeometry>
        </mxCell>
        <mxCell id="_MfQHNvoKg8z1ilOdqCw-2" value="Літературна спільнота" style="shape=umlActor;verticalLabelPosition=bottom;verticalAlign=top;html=1;outlineConnect=0;" vertex="1" parent="1">
          <mxGeometry x="770" y="370" width="30" height="60" as="geometry" />
        </mxCell>
        <mxCell id="_MfQHNvoKg8z1ilOdqCw-3" value="" style="endArrow=classic;html=1;rounded=0;entryX=1;entryY=0.5;entryDx=0;entryDy=0;" edge="1" parent="1" target="GtSsYqe8CseLy04RSJ3Y-34">
          <mxGeometry width="50" height="50" relative="1" as="geometry">
            <mxPoint x="770" y="360" as="sourcePoint" />
            <mxPoint x="800" y="310" as="targetPoint" />
            <Array as="points" />
          </mxGeometry>
        </mxCell>
        <mxCell id="_MfQHNvoKg8z1ilOdqCw-8" style="edgeStyle=orthogonalEdgeStyle;rounded=0;orthogonalLoop=1;jettySize=auto;html=1;endArrow=block;endFill=0;" edge="1" parent="1">
          <mxGeometry relative="1" as="geometry">
            <mxPoint x="785" y="80" as="sourcePoint" />
            <mxPoint x="66" y="280" as="targetPoint" />
            <Array as="points">
              <mxPoint x="785" />
              <mxPoint x="66" />
            </Array>
          </mxGeometry>
        </mxCell>
        <mxCell id="_MfQHNvoKg8z1ilOdqCw-4" value="Наглядач за&lt;br&gt;станом здоров&#39;я" style="shape=umlActor;verticalLabelPosition=bottom;verticalAlign=top;html=1;outlineConnect=0;" vertex="1" parent="1">
          <mxGeometry x="770" y="90" width="30" height="60" as="geometry" />
        </mxCell>
        <mxCell id="_MfQHNvoKg8z1ilOdqCw-7" value="" style="endArrow=classic;html=1;rounded=0;entryX=1;entryY=0.5;entryDx=0;entryDy=0;" edge="1" parent="1" target="GtSsYqe8CseLy04RSJ3Y-32">
          <mxGeometry width="50" height="50" relative="1" as="geometry">
            <mxPoint x="760" y="119.66" as="sourcePoint" />
            <mxPoint x="690" y="119.66" as="targetPoint" />
          </mxGeometry>
        </mxCell>
        <mxCell id="_MfQHNvoKg8z1ilOdqCw-9" style="edgeStyle=orthogonalEdgeStyle;rounded=0;orthogonalLoop=1;jettySize=auto;html=1;endArrow=block;endFill=0;" edge="1" parent="1">
          <mxGeometry relative="1" as="geometry">
            <mxPoint x="785" y="480" as="sourcePoint" />
            <mxPoint x="65" y="380" as="targetPoint" />
            <Array as="points">
              <mxPoint x="785" y="560" />
              <mxPoint x="65" y="560" />
            </Array>
          </mxGeometry>
        </mxCell>
        <mxCell id="_MfQHNvoKg8z1ilOdqCw-11" value="Поради щодо здоров&#39;я" style="ellipse;whiteSpace=wrap;html=1;" vertex="1" parent="1">
          <mxGeometry x="360" y="30" width="200" height="80" as="geometry" />
        </mxCell>
        <mxCell id="_MfQHNvoKg8z1ilOdqCw-12" value="" style="endArrow=classic;html=1;rounded=0;entryX=1;entryY=0.5;entryDx=0;entryDy=0;" edge="1" parent="1" target="_MfQHNvoKg8z1ilOdqCw-11">
          <mxGeometry width="50" height="50" relative="1" as="geometry">
            <mxPoint x="760" y="100" as="sourcePoint" />
            <mxPoint x="670" y="40" as="targetPoint" />
          </mxGeometry>
        </mxCell>
        <mxCell id="_MfQHNvoKg8z1ilOdqCw-14" value="" style="endArrow=none;html=1;rounded=0;entryX=0;entryY=0.5;entryDx=0;entryDy=0;" edge="1" parent="1" target="_MfQHNvoKg8z1ilOdqCw-11">
          <mxGeometry width="50" height="50" relative="1" as="geometry">
            <mxPoint x="160" y="70" as="sourcePoint" />
            <mxPoint x="320" y="70" as="targetPoint" />
          </mxGeometry>
        </mxCell>
        <mxCell id="_MfQHNvoKg8z1ilOdqCw-15" value="" style="endArrow=classic;html=1;rounded=0;" edge="1" parent="1">
          <mxGeometry width="50" height="50" relative="1" as="geometry">
            <mxPoint x="160" y="70" as="sourcePoint" />
            <mxPoint x="80" y="280" as="targetPoint" />
          </mxGeometry>
        </mxCell>
        <mxCell id="_MfQHNvoKg8z1ilOdqCw-17" value="" style="endArrow=classic;html=1;rounded=0;entryX=1;entryY=0.5;entryDx=0;entryDy=0;" edge="1" parent="1" target="GtSsYqe8CseLy04RSJ3Y-35">
          <mxGeometry width="50" height="50" relative="1" as="geometry">
            <mxPoint x="760" y="420" as="sourcePoint" />
            <mxPoint x="870" y="370" as="targetPoint" />
            <Array as="points" />
          </mxGeometry>
        </mxCell>
      </root>
    </mxGraphModel>
  </diagram>
</mxfile>
